Simulation
nRows=32
nColumns=15
endheader
time  TH_x TH_y TH_z SC_y  SC_z  SC_x  AC_y  AC_z  AC_x  GH_y  GH_z  GH_yy  EL_x  PS_y
8.6175  0.000000  0.000000  0.000000  -35.520209480123775  2.4545356563888205  -9.361388949965677  40.999578306951136  15.068513008256597  5.7941758674026325  116.0465435677583  5.00533353328627  -100.6459838051902  20.572578069387294  120.000000
8.67495  0.000000  0.000000  0.000000  -35.097601503756245  2.41888633601044  -9.932148547036483  40.45931543231001  14.995225196381233  5.6654559573752765  105.61492720726845  5.437916807052863  -90.28437261567288  20.502837843274214  120.000000
8.7324  0.000000  0.000000  0.000000  -34.64307161701232  2.297710048883733  -10.616256411756204  40.01930840340848  14.951351308303863  5.630836320738908  95.27996622575468  6.423120963277684  -79.89306775419215  20.60999028981113  120.000000
8.78985  0.000000  0.000000  0.000000  -34.20936581918324  2.0886968215608728  -11.371692099410746  39.71006964031322  14.931792131240766  5.728850416741568  86.98092212304269  8.039211259596982  -71.46244677812744  20.875404125322454  120.000000
8.8473  0.000000  0.000000  0.000000  -33.85054868912813  1.8230908989987822  -12.158606280571759  39.550914629953155  14.940229191791639  5.98571061232155  81.18378371898226  10.280474638399662  -65.55204541902604  21.236106413956424  120.000000
8.90475  0.000000  0.000000  0.000000  -33.606472174006655  1.562422343963657  -12.94184464957315  39.55702676568309  14.989499467223032  6.408894823102836  77.42837113192928  13.085470607904153  -61.811747090286325  21.61442437706788  120.000000
8.9622  0.000000  0.000000  0.000000  -33.49258261008713  1.3878139844609032  -13.684791129880146  39.74267033294972  15.099167445954237  6.98936889944902  75.08932360548489  16.354575790646116  -59.714456926266415  21.944797231810817  120.000000
9.01965  0.000000  0.000000  0.000000  -33.50231804693886  1.3793242177632876  -14.336097638816563  40.11690153101313  15.284863059233931  7.719426718818977  73.69593280902053  19.966424332120642  -58.852789411377046  22.191322886258448  120.000000
9.0771  0.000000  0.000000  0.000000  -33.62266561948971  1.590510776776359  -14.821506587162661  40.671684198589844  15.54536685719704  8.610829202713422  72.9619061832853  23.79186903327929  -58.958298037098366  22.346360349677994  120.000000
9.13455  0.000000  0.000000  0.000000  -33.83810434326237  2.0499179067525395  -15.050481520891928  41.387490162175006  15.871161873445871  9.67749569196089  72.70694657639054  27.70678461913934  -59.828963079204975  22.415406817175537  120.000000
9.192  0.000000  0.000000  0.000000  -34.14246783771987  2.785543515821136  -14.927802241220714  42.24740070365015  16.25779151161133  10.904979850621485  72.7803756306845  31.613913358640993  -61.27455620724137  22.403610740208812  120.000000
9.24945  0.000000  0.000000  0.000000  -34.54215246696453  3.8256992036113586  -14.361608022631835  43.235123899029574  16.70187457464396  12.24366367906465  73.04141864110251  35.44537663518281  -63.107125798071024  22.30734683830973  120.000000
9.3069  0.000000  0.000000  0.000000  -35.058781833464714  5.172558366101458  -13.26837954917888  44.325318493715834  17.178833650204293  13.62929432326894  73.37647819718902  39.15423409158042  -65.15896621624309  22.11357701204135  120.000000
9.36435  0.000000  0.000000  0.000000  -35.72442398328642  6.785918619738032  -11.578828364752273  45.48788423071763  17.63727361157284  14.997463496106537  73.70394810699582  42.70977925265738  -67.29093926909394  21.81002633837887  120.000000
9.421800000000001  0.000000  0.000000  0.000000  -36.568031549172275  8.593215030789828  -9.250951514476784  46.69388607682931  18.010522506508465  16.288791723239616  73.96661484027817  46.09037083628323  -69.39124770019727  21.39837502432004  120.000000
9.47925  0.000000  0.000000  0.000000  -37.61644067010234  10.4983958975433  -6.284076250431204  47.90662692673964  18.228701259401493  17.460182977005203  74.12502174284155  49.27266042090877  -71.37428884945336  20.901729724704396  120.000000
9.5367  0.000000  0.000000  0.000000  -38.88675628603718  12.386847936495498  -2.733658999992553  49.07665679315854  18.238557147068175  18.485966412939483  74.15257335220029  52.22319517521625  -73.17562300244872  20.361186997195233  120.000000
9.59415  0.000000  0.000000  0.000000  -40.36941547164107  14.136534805035632  1.2750077372910544  50.15000655247001  18.02020688063174  19.349485223591305  74.03495739722842  54.90210395270563  -74.74596809372525  19.823468899216234  120.000000
9.6516  0.000000  0.000000  0.000000  -42.006913839704325  15.635583414534857  5.545909959033858  51.0785366721018  17.590307133201943  20.03651565926272  73.7756994577225  57.26668711194783  -76.04569109751607  19.329501796522933  120.000000
9.70905  0.000000  0.000000  0.000000  -43.69129994990161  16.810141875003882  9.829402568392656  51.832307593206906  16.991695599512095  20.530459239362813  73.40180360020945  59.280159260189166  -77.04427423595108  18.90812294417777  120.000000
9.7665  0.000000  0.000000  0.000000  -45.27827061130136  17.638850895202676  13.854201260565821  52.40273948200627  16.27674062310668  20.81451820617417  72.96078924439115  60.91590907772111  -77.72377435150568  18.5772419135123  120.000000
9.82395  0.000000  0.000000  0.000000  -46.620083862702415  18.153865564774318  17.365255371949466  52.80111606111344  15.496377527793173  20.87255743463061  72.51033628943402  62.159092639468305  -78.08500311014345  18.346385018646966  120.000000
9.8814  0.000000  0.000000  0.000000  -47.58972591761442  18.422224761689716  20.151809151608827  53.05437081992027  14.699239814662391  20.6934835295237  72.10402037032875  63.00726260264477  -78.14891363196294  18.218096054251077  120.000000
9.93885  0.000000  0.000000  0.000000  -48.0950229773261  18.51199207666415  22.057892906551036  53.19579747788921  13.932375391327934  20.28267676067671  71.78213807438812  63.467052500439664  -77.95247200770385  18.185955501467408  120.000000
9.9963  0.000000  0.000000  0.000000  -48.08660815621584  18.469343032135214  22.979637824436892  53.25289418947193  13.240380241051009  19.66532218381314  71.56326128098284  63.547168380917476  -77.53742505713076  18.231332461293686  120.000000
10.05375  0.000000  0.000000  0.000000  -47.5612932963402  18.30573136170953  22.862851664486783  53.237774366059305  12.661110539560813  18.8830537583721  71.44589759906495  63.254941303485886  -76.93756359989808  18.326065313593187  120.000000
10.1112  0.000000  0.000000  0.000000  -46.56381625780157  17.99339889020716  21.707937201620222  53.14341785528123  12.223465868289535  17.989248599750155  71.413139869076  62.596998202084364  -76.16389657394184  18.4395587390672  120.000000
10.16865  0.000000  0.000000  0.000000  -45.18919733491784  17.475026779282476  19.58198095569559  52.94383222061904  11.95018619226021  17.041744342779204  71.43378770388907  61.580799366942124  -75.19153713386471  18.543119142391873  120.000000
10.2261  0.000000  0.000000  0.000000  -43.579644161899445  16.686130361185995  16.624440917977406  52.60092705641838  11.860325632124317  16.09678335162907  71.4610386676578  60.21861718929795  -73.9600851462007  18.612689818400266  120.000000
10.28355  0.000000  0.000000  0.000000  -41.89837428575343  15.588175471358465  13.035704972712962  52.08264953761696  11.971355830976709  15.207346939092862  71.43688824005261  58.53415687289925  -72.39276458417321  18.63352940815269  120.000000
10.341000000000001  0.000000  0.000000  0.000000  -40.29319052418152  14.189898205387228  9.043502064703716  51.379006107436126  12.291417514296821  14.426845105515397  71.30513496898328  56.56351195563715  -70.42820792072929  18.609267957485866  120.000000
10.39845  0.000000  0.000000  0.000000  -38.868992204676715  12.555645560645731  4.862153417206247  50.50297611433722  12.810843373888384  13.800657333887107  71.01784824651297  54.345731445974884  -68.04422889714189  18.570282458423122  120.000000
